<?xml version="1.0" standalone="no"?>
<!DOCTYPE svg PUBLIC "-//W3C//DTD SVG 20010904//EN"
 "http://www.w3.org/TR/2001/REC-SVG-20010904/DTD/svg10.dtd">
<svg version="1.0" xmlns="http://www.w3.org/2000/svg"
 width="603.000000pt" height="253.000000pt" viewBox="0 0 603.000000 253.000000"
 preserveAspectRatio="xMidYMid meet">

<g transform="translate(0.000000,253.000000) scale(0.100000,-0.100000)"
fill="#000000" stroke="none">
<path d="M1120 2085 c-88 -82 -117 -85 -134 -10 -11 43 -34 65 -71 65 -66 0
-114 -74 -81 -125 8 -13 32 -29 53 -35 44 -14 64 -35 56 -58 -3 -10 -32 -44
-63 -77 -73 -76 -79 -95 -46 -145 14 -22 34 -44 45 -50 16 -8 23 -5 41 20 78
109 246 62 275 -77 9 -44 -24 -115 -64 -139 -17 -10 -31 -21 -31 -24 0 -11 54
-58 83 -73 40 -21 61 -12 137 60 86 80 108 81 124 7 16 -76 110 -91 149 -25
33 57 13 101 -58 123 -32 11 -41 18 -43 40 -3 22 9 40 55 88 91 96 91 102 -4
202 -34 36 -63 73 -63 81 0 19 38 47 63 47 26 0 67 45 67 74 0 13 -12 38 -26
55 -20 25 -34 31 -63 31 -43 0 -66 -19 -77 -65 -17 -75 -46 -72 -134 10 -48
45 -77 65 -95 65 -18 0 -47 -20 -95 -65z"/>
<path d="M2521 1839 c-53 -16 -78 -37 -101 -83 -18 -39 -20 -61 -20 -264 0
-242 4 -265 56 -314 55 -52 170 -57 233 -11 14 11 36 39 49 64 22 43 23 51 20
281 -3 221 -4 238 -24 265 -39 54 -141 84 -213 62z m129 -109 c19 -19 20 -33
20 -225 0 -255 -7 -275 -95 -275 -18 0 -43 9 -56 19 -24 19 -24 22 -27 233 -3
205 -2 215 18 241 18 23 29 27 71 27 36 0 54 -5 69 -20z"/>
<path d="M3101 1834 c-148 -54 -221 -156 -229 -321 -5 -106 11 -169 59 -240
102 -148 354 -189 510 -83 l44 30 19 -26 c49 -67 181 -79 258 -24 l27 20 37
-25 c50 -34 149 -38 206 -9 24 12 32 13 56 1 15 -8 47 -17 71 -21 55 -8 124
22 147 65 8 16 17 29 19 29 3 0 26 -16 52 -36 60 -46 82 -54 145 -54 70 0 130
35 152 90 24 59 24 486 0 536 -51 107 -221 106 -282 -1 -10 -19 -13 -18 -49
16 -46 44 -65 54 -121 63 -63 9 -121 -10 -163 -54 l-35 -37 -25 20 c-55 46
-131 71 -209 72 -66 0 -85 -5 -143 -33 -37 -19 -79 -48 -94 -67 l-27 -34 -48
45 c-72 67 -125 87 -238 91 -69 2 -107 -1 -139 -13z m217 -89 c127 -38 177
-150 106 -235 -35 -41 -83 -55 -127 -36 -45 18 -54 47 -32 97 22 47 14 69 -22
69 -38 0 -50 -9 -68 -53 -33 -79 -8 -171 55 -205 37 -19 97 -8 145 27 46 33
73 39 93 19 31 -31 -1 -104 -70 -154 -100 -75 -269 -63 -362 24 -66 62 -94
183 -66 284 38 134 195 208 348 163z m575 -16 c58 -29 75 -46 105 -104 22 -43
27 -66 30 -159 5 -125 -10 -211 -38 -226 -10 -6 -37 -10 -59 -10 -52 0 -81 27
-81 75 l0 35 -60 0 -60 0 0 -35 c0 -50 -29 -75 -85 -75 -81 0 -102 53 -93 248
3 73 9 107 25 137 27 50 77 99 123 119 52 23 142 20 193 -5z m457 -84 c58 -58
109 -105 113 -105 4 0 7 39 7 87 0 103 12 123 71 123 28 0 41 -5 49 -19 6 -12
10 -105 10 -234 0 -202 -1 -216 -21 -241 -46 -58 -115 -27 -254 113 -38 39
-73 71 -77 71 -5 0 -8 -37 -8 -83 0 -97 -14 -127 -61 -127 -17 0 -39 5 -50 10
-18 10 -19 24 -19 240 0 217 1 231 20 250 14 14 33 20 66 20 46 0 49 -2 154
-105z"/>
<path d="M3740 1594 c-6 -14 -10 -52 -10 -85 l0 -59 60 0 60 0 0 66 c0 87 -10
104 -61 104 -33 0 -41 -4 -49 -26z"/>
<path d="M642 1606 c-37 -35 -74 -66 -82 -68 -25 -9 -48 10 -55 44 -17 78 -83
101 -136 49 -49 -50 -36 -111 28 -132 84 -26 83 -51 -2 -140 -85 -88 -85 -100
0 -188 36 -37 65 -76 65 -87 0 -27 -19 -44 -47 -44 -33 0 -73 -43 -73 -78 0
-64 75 -111 125 -78 13 8 29 32 35 53 27 82 42 82 128 -1 74 -70 100 -83 134
-65 31 15 78 60 78 73 0 6 -14 19 -30 28 -34 19 -60 71 -60 119 0 70 62 140
136 155 44 8 118 -26 143 -66 l19 -31 35 31 c46 40 60 79 41 115 -7 14 -38 52
-69 83 -72 73 -72 100 0 118 61 14 87 62 60 114 -18 34 -43 50 -80 50 -32 0
-75 -41 -75 -73 0 -12 -5 -28 -12 -35 -24 -24 -55 -12 -109 42 -57 56 -87 76
-114 76 -9 0 -47 -29 -83 -64z"/>
<path d="M1623 1627 l-46 -43 35 -21 c45 -26 72 -83 65 -136 -18 -136 -207
-189 -274 -77 -9 16 -20 30 -23 30 -12 0 -78 -76 -84 -97 -9 -30 13 -69 69
-123 78 -75 81 -102 14 -120 -44 -12 -66 -32 -75 -66 -9 -35 25 -86 64 -98 48
-13 78 7 97 65 25 75 48 74 125 -6 55 -58 94 -77 130 -63 14 5 53 37 87 70 57
56 64 61 86 51 17 -8 27 -23 31 -47 9 -47 50 -80 91 -72 39 8 75 49 75 87 0
36 -39 79 -73 79 -12 0 -28 5 -35 12 -23 23 -12 54 39 103 55 54 82 103 73
132 -4 10 -34 45 -66 79 -49 50 -59 66 -56 89 2 24 10 30 38 37 42 11 80 50
80 84 0 34 -51 84 -85 84 -41 0 -62 -16 -76 -57 -26 -84 -51 -83 -140 2 -83
80 -102 83 -166 22z"/>
<path d="M4865 1281 c-72 -19 -141 -71 -166 -125 -12 -26 -19 -64 -19 -107 0
-57 4 -72 31 -113 l32 -47 -36 -30 c-47 -39 -71 -102 -65 -174 10 -117 64
-148 300 -171 146 -14 171 -15 209 -2 42 14 46 13 92 -11 99 -51 239 -22 280
59 14 27 16 48 12 95 -11 111 -7 161 20 261 36 129 38 215 7 266 -33 53 -99
82 -188 83 -60 0 -76 -4 -112 -27 -49 -33 -47 -33 -80 -9 -64 44 -239 73 -317
52z m160 -102 c117 -20 175 -76 175 -169 0 -95 -39 -165 -114 -205 -46 -25
-45 -35 3 -35 56 0 84 -26 84 -78 0 -51 -22 -78 -66 -85 -47 -6 -303 20 -335
35 -23 11 -27 20 -30 60 -4 57 5 67 128 141 98 60 130 100 130 162 0 72 -36
67 -54 -7 -7 -31 -44 -43 -100 -33 -58 11 -84 60 -66 127 12 42 36 65 87 84
47 16 79 17 158 3z m401 -19 c35 0 64 -34 64 -74 0 -19 -13 -86 -30 -149 -16
-64 -30 -126 -30 -138 0 -51 -69 -78 -116 -45 -19 14 -21 28 -27 176 -3 97 -2
172 4 189 12 34 44 52 83 46 16 -3 39 -5 52 -5z m-33 -461 c43 -12 62 -44 48
-83 -12 -29 -29 -36 -90 -36 -61 0 -101 28 -101 70 0 53 58 73 143 49z"/>
<path d="M1115 1120 c-41 -38 -78 -70 -83 -70 -18 0 -40 27 -52 62 -22 71 -81
88 -131 39 -21 -21 -29 -39 -29 -64 0 -40 20 -61 75 -79 63 -21 59 -46 -19
-128 -86 -89 -86 -101 -1 -189 84 -87 87 -112 15 -136 -28 -9 -55 -25 -60 -35
-30 -57 13 -130 76 -130 37 0 74 29 74 58 0 27 29 62 51 62 11 0 51 -29 89
-65 47 -45 77 -65 94 -65 18 0 47 21 95 66 83 78 108 82 129 19 17 -53 39 -75
74 -75 61 0 104 51 89 106 -7 27 -19 36 -101 74 -31 14 -20 41 44 109 83 88
87 117 27 175 l-40 39 -27 -32 c-39 -46 -79 -64 -132 -58 -77 8 -132 66 -139
144 -5 56 19 102 67 132 l30 18 -49 46 c-28 26 -60 47 -71 47 -12 0 -52 -29
-95 -70z"/>
<path d="M2463 998 c-34 -16 -45 -58 -42 -153 4 -77 7 -89 28 -106 30 -24 138
-26 181 -4 41 21 63 68 55 114 l-6 36 21 -21 c11 -11 23 -38 27 -60 10 -67 59
-100 118 -78 20 8 45 55 45 85 0 12 11 37 25 55 35 45 34 96 -2 124 -21 16
-36 20 -58 15 -38 -7 -52 -7 -91 0 -24 5 -37 1 -61 -19 l-31 -26 -38 25 c-29
20 -49 25 -93 24 -31 0 -66 -5 -78 -11z m157 -54 c8 -8 15 -43 17 -78 4 -84
-10 -98 -98 -94 l-64 3 -3 79 c-2 44 -1 85 2 93 8 20 129 18 146 -3z m171 -6
l19 -23 18 23 c12 16 26 23 43 20 33 -4 35 -30 4 -66 -14 -16 -25 -39 -25 -50
0 -42 -19 -72 -44 -72 -26 0 -36 16 -36 57 0 15 -11 41 -25 59 -36 47 -33 74
8 74 10 0 27 -10 38 -22z"/>
<path d="M2546 923 c-12 -12 -6 -33 9 -33 8 0 15 6 15 14 0 17 -14 28 -24 19z"/>
<path d="M2540 830 c0 -15 5 -20 18 -18 9 2 17 10 17 18 0 8 -8 16 -17 18 -13
2 -18 -3 -18 -18z"/>
<path d="M3085 985 c-23 -22 -25 -31 -25 -124 0 -96 1 -100 26 -120 40 -32 79
-27 120 14 19 19 41 35 48 35 8 0 19 7 26 15 17 21 23 19 42 -15 46 -80 192
-96 240 -26 4 6 16 0 31 -16 22 -24 30 -26 115 -26 75 0 94 4 108 19 16 17 17
17 36 -1 26 -24 183 -26 210 -3 14 13 19 13 42 -2 18 -12 36 -15 58 -11 40 8
99 8 155 0 33 -5 45 -2 62 15 18 18 21 33 21 120 0 79 -3 103 -17 120 -25 30
-85 38 -118 17 -23 -15 -28 -15 -47 -1 -41 28 -107 12 -126 -31 l-11 -23 -31
29 c-56 52 -146 48 -190 -8 l-21 -26 -22 27 c-28 34 -65 47 -132 47 -42 0 -60
-5 -82 -24 l-28 -24 -27 20 c-58 41 -147 36 -202 -13 -28 -24 -36 -27 -43 -16
-33 58 -173 78 -218 32z m407 -25 c40 -12 58 -41 38 -65 -19 -23 -61 -19 -67
5 -3 12 -11 19 -17 17 -15 -5 -14 -89 2 -95 8 -2 10 2 6 13 -13 33 51 48 80
19 22 -21 20 -31 -9 -59 -19 -19 -35 -25 -70 -25 -123 0 -146 154 -30 192 29
9 27 9 67 -2z m-237 -25 c14 -13 25 -33 25 -45 0 -29 -35 -60 -69 -60 -24 0
-30 -5 -34 -30 -5 -23 -12 -30 -30 -30 -37 0 -47 19 -47 91 0 97 2 99 72 99
49 0 63 -4 83 -25z m510 19 c24 -9 37 -51 25 -75 -8 -13 -7 -25 0 -40 7 -11 9
-32 6 -46 -5 -19 -12 -24 -34 -21 -21 2 -28 9 -32 33 -3 18 -11 30 -20 30 -9
0 -17 -13 -20 -30 -4 -22 -11 -31 -29 -33 -33 -5 -41 12 -41 90 0 95 2 98 70
98 32 0 66 -3 75 -6z m240 0 c35 -14 59 -116 39 -168 -9 -24 -55 -20 -61 4 -3
11 -13 20 -23 20 -10 0 -20 -9 -23 -20 -6 -24 -52 -28 -61 -4 -10 26 -7 104 6
127 6 12 18 27 27 34 17 13 69 17 96 7z m211 -34 c9 -22 19 -40 23 -40 3 0 15
17 26 38 17 32 25 37 55 37 l35 0 0 -90 0 -90 -30 0 c-27 0 -30 4 -33 34 l-3
34 -20 -32 c-23 -39 -33 -39 -61 0 l-23 31 -5 -34 c-4 -24 -11 -34 -26 -36
-19 -3 -21 3 -27 74 -7 91 2 114 43 114 26 0 33 -6 46 -40z"/>
<path d="M3180 895 c0 -17 5 -25 13 -22 6 2 12 12 12 22 0 10 -6 20 -12 23 -8
2 -13 -6 -13 -23z"/>
<path d="M3694 915 c-3 -8 -3 -19 0 -24 9 -13 36 -2 36 14 0 19 -30 27 -36 10z"/>
<path d="M3940 880 c0 -23 4 -30 20 -30 16 0 20 7 20 30 0 23 -4 30 -20 30
-16 0 -20 -7 -20 -30z"/>
</g>
</svg>
